<?xml version="1.0" encoding="UTF-8" standalone="no"?>
<svg
   version="1.1"
   id="Layer_1"
   x="0px"
   y="0px"
   width="122.879px"
   height="103.609px"
   viewBox="0 0 122.879 103.609"
   enable-background="new 0 0 122.879 103.609"
   xml:space="preserve"
   sodipodi:docname="hamburger-menu-icon.svg"
   inkscape:version="1.2 (dc2aedaf03, 2022-05-15)"
   xmlns:inkscape="http://www.inkscape.org/namespaces/inkscape"
   xmlns:sodipodi="http://sodipodi.sourceforge.net/DTD/sodipodi-0.dtd"
   xmlns="http://www.w3.org/2000/svg"
   xmlns:svg="http://www.w3.org/2000/svg"><defs
     id="defs2329" /><sodipodi:namedview
     id="namedview2327"
     pagecolor="#ffffff"
     bordercolor="#000000"
     borderopacity="0.25"
     inkscape:showpageshadow="2"
     inkscape:pageopacity="0.0"
     inkscape:pagecheckerboard="0"
     inkscape:deskcolor="#d1d1d1"
     showgrid="false"
     inkscape:zoom="4.3915103"
     inkscape:cx="61.368408"
     inkscape:cy="39.73576"
     inkscape:window-width="1280"
     inkscape:window-height="658"
     inkscape:window-x="-6"
     inkscape:window-y="-6"
     inkscape:window-maximized="1"
     inkscape:current-layer="Layer_1" /><g
     id="g2324"><path
       fill-rule="evenodd"
       clip-rule="evenodd"
       d="m 10.368,0 h 102.144 c 5.703,0 10.367,4.665 10.367,10.367 v 0 c 0,5.702 -4.664,10.368 -10.367,10.368 H 10.368 C 4.666,20.735 0,16.07 0,10.368 v 0 C 0,4.665 4.666,0 10.368,0 Z m 0,82.875 h 102.144 c 5.703,0 10.367,4.665 10.367,10.367 v 0 c 0,5.702 -4.664,10.367 -10.367,10.367 H 10.368 C 4.666,103.609 0,98.944 0,93.242 v 0 C 0,87.54 4.666,82.875 10.368,82.875 Z M 78.453915,41.438 H 112.512 c 5.703,0 10.367,4.665 10.367,10.367 v 0 c 0,5.702 -4.6645,10.292752 -10.367,10.368 L 77.998491,62.628424 C 72.296987,62.703659 66.49193,58.873273 66.49193,53.171273 l 0,-0.910849 c 0,-5.702 6.259985,-10.822424 11.961985,-10.822424 z"
       id="path2322"
       sodipodi:nodetypes="sssssssssssssssssssssssssss" /></g></svg>
